<svg width="32" height="32" viewBox="0 0 40 40" fill="none" xmlns="http://www.w3.org/2000/svg">
  <defs>
    <linearGradient id="bg" x1="4" y1="4" x2="36" y2="36" gradientUnits="userSpaceOnUse">
      <stop stop-color="#1e3a5f"/>
      <stop offset="1" stop-color="#152a45"/>
    </linearGradient>
    <linearGradient id="gold" x1="18" y1="12" x2="26" y2="28" gradientUnits="userSpaceOnUse">
      <stop stop-color="#d4a853"/>
      <stop offset="1" stop-color="#b8923f"/>
    </linearGradient>
  </defs>
  <rect width="40" height="40" rx="10" fill="url(#bg)"/>
  <rect x="8" y="10" width="11" height="14" rx="2" fill="white" fill-opacity="0.92"/>
  <rect x="10" y="13" width="7" height="1.5" rx="0.75" fill="#1e3a5f" fill-opacity="0.35"/>
  <rect x="10" y="16.5" width="5.5" height="1.5" rx="0.75" fill="#1e3a5f" fill-opacity="0.25"/>
  <rect x="10" y="20" width="6.5" height="1.5" rx="0.75" fill="#1e3a5f" fill-opacity="0.25"/>
  <path d="M21 20 L24 20 L24 17 L28 20 L24 23 L24 20" fill="url(#gold)"/>
  <rect x="29" y="10" width="3" height="14" rx="1" fill="white" fill-opacity="0.85"/>
  <rect x="33" y="10" width="3" height="14" rx="1" fill="white" fill-opacity="0.65"/>
  <path d="M30.5 26.5 L32.5 28.5 L36 24.5" stroke="url(#gold)" stroke-width="2" stroke-linecap="round" stroke-linejoin="round"/>
</svg>
